<svg xmlns="http://www.w3.org/2000/svg" version="1.1" xmlns:xlink="http://www.w3.org/1999/xlink" xmlns:svgjs="http://svgjs.dev/svgjs" width="1000" height="366" viewBox="0 0 1000 366"><g transform="matrix(1,0,0,1,-0.6060606060606233,0.18858442307785594)"><svg viewBox="0 0 396 145" data-background-color="#f8f8f8" preserveAspectRatio="xMidYMid meet" height="366" width="1000" xmlns="http://www.w3.org/2000/svg" xmlns:xlink="http://www.w3.org/1999/xlink"><defs></defs><g id="tight-bounds" transform="matrix(1,0,0,1,0.2400000000000091,-0.07471158248895904)"><svg viewBox="0 0 395.52 145.14942399053888" height="145.14942399053888" width="395.52"><g><svg viewBox="0 0 397.4975999999999 145.87517111049155" height="145.14942399053888" width="395.52"><g><svg viewBox="0 0 397.4975999999999 145.87517111049155" height="145.87517111049155" width="397.4975999999999"><g><svg viewBox="0 0 397.4975999999999 145.87517111049155" height="145.87517111049155" width="397.4975999999999"><g><rect width="397.4975999999999" height="6.217697752650469" x="0" y="76.27135936130216" fill="#111111" opacity="1" stroke-width="0" stroke="transparent" fill-opacity="1" class="rect-o-0" data-fill-palette-color="primary" rx="1%" id="o-0" data-palette-color="#111111"></rect></g><g transform="matrix(1,0,0,1,0.9887999999999693,0)"><svg viewBox="0 0 395.52 68.94684630189715" height="68.94684630189715" width="395.52"><g transform="matrix(1,0,0,1,0,0)"><svg width="395.52" viewBox="0.699999988079071 -29.399999618530273 181.8300018310547 31.69999885559082" height="68.94684630189715" data-palette-color="#111111"><path d="M32.25-26.4L32.25-26.4Q32.25-25.3 31.35-23.85L31.35-23.85Q30.6-22.5 29.68-22 28.75-21.5 28.75-22.1L28.75-22.1Q28.75-22.15 29.3-22.7L29.3-22.7Q30.95-24.25 30.95-25.25L30.95-25.25Q30.95-27.4 26.7-27.4L26.7-27.4Q24.9-27.4 21.95-26.73 19-26.05 16.25-24.55L16.25-24.55Q13.05-22.8 13.05-21.5L13.05-21.5Q13.05-20.45 15-19.5L15-19.5Q16.05-19 19.18-17.82 22.3-16.65 24.23-15.78 26.15-14.9 27.88-13.3 29.6-11.7 29.6-9.75 29.6-7.8 27.3-5.5L27.3-5.5Q23.8-2.15 18.2 0.08 12.6 2.3 8.6 2.3L8.6 2.3Q0.7 2.3 0.7-2.15 0.7-6.6 5.55-9.7L5.55-9.7Q9.55-12.45 13.95-12.45L13.95-12.45Q15-12.45 14.9-12.1L14.9-12.1Q14.8-11.75 13.4-11.73 12-11.7 9.8-10.78 7.6-9.85 5.7-8.1L5.7-8.1Q3.2-5.85 3.2-3.6L3.2-3.6Q3.2-2.2 4.55-1.1 5.9 0 9.7 0 13.5 0 17.2-1.2L17.2-1.2Q25.2-3.85 27.2-7L27.2-7Q28-8.15 28-8.95L28-8.95Q28-11.25 25.2-12.55L25.2-12.55Q21.95-14.05 16.1-16L16.1-16Q13.85-16.75 12.28-17.98 10.7-19.2 10.7-20.93 10.7-22.65 12.58-24.33 14.45-26 17.1-27L17.1-27Q22.8-29.15 26.75-29.15L26.75-29.15Q32.25-29.15 32.25-26.4ZM44.15-11L44.15-11 44.4-12Q44.4-13 43.65-13L43.65-13Q41.6-13 38.05-9.8 34.5-6.6 33.55-3.35L33.55-3.35Q33.3-2.5 33.3-1.83 33.3-1.15 33.6-0.7L33.6-0.7Q34.2 0.2 35.45 0.2 36.7 0.2 38.15-0.15L38.15-0.15Q41.35-1.05 43.47-2.73 45.6-4.4 47.95-7.4L47.95-7.4Q48.15-7.65 48.42-7.55 48.7-7.45 48.7-7.28 48.7-7.1 48.55-6.75L48.55-6.75Q46.15-3.5 43.52-1.48 40.9 0.55 37.45 1.15L37.45 1.15Q36.45 1.3 35.6 1.3L35.6 1.3Q33.15 1.3 31.87 0.1 30.6-1.1 30.6-2.55 30.6-4 31.3-5.7L31.3-5.7Q32.55-8.55 36.65-11.55 40.75-14.55 43.15-14.55L43.15-14.55Q43.75-14.55 44.3-14.4L44.3-14.4Q45.7-13.9 45.7-12.8L45.7-12.8Q45.7-12.05 45.15-11.1 44.6-10.15 44.32-10.43 44.05-10.7 44.15-11ZM49.84 0.55L49.84 0.55Q49.05 0.55 48.12 0.08 47.2-0.4 46.55-1.28 45.89-2.15 45.89-3.15 45.89-4.15 46.34-5.05L46.34-5.05Q47.34-7.15 49.57-9.13 51.8-11.1 54.2-12.5 56.59-13.9 57.99-14.25 59.39-14.6 60.72-14.6 62.05-14.6 63-13.93 63.95-13.25 63.95-12.5L63.95-12.5Q63.95-12.25 63.89-12.2 63.84-12.15 63.64-12.25L63.64-12.25Q63.05-13.2 61.17-13.2 59.3-13.2 56.92-11.98 54.55-10.75 52.45-8.9L52.45-8.9Q50.7-7.25 49.37-5.18 48.05-3.1 48.05-2.15L48.05-2.15Q48.05-0.3 49.09-0.3 50.14-0.3 52.3-2L52.3-2Q55.84-5 57.14-6.4L57.14-6.4Q61.75-11.35 62.09-11.35L62.09-11.35Q62.7-11.35 63.55-11 64.39-10.65 64.09-10.15L64.09-10.15Q61.55-6.55 61.09-2.9L61.09-2.9Q61.05-2.45 61.05-1.75 61.05-1.05 61.45-0.6L61.45-0.6Q62.2 0.2 63.5-0.5 64.8-1.2 67.12-3.3 69.44-5.4 70.84-7.4L70.84-7.4Q71.05-7.65 71.3-7.53 71.55-7.4 71.55-7.3L71.55-7.3Q71.55-6.55 69.17-4.03 66.8-1.5 65.55-0.6L65.55-0.6Q63.2 1.15 61.2 1.15L61.2 1.15Q59.3 1.15 58.64-0.75L58.64-0.75Q58.49-1.35 58.49-2.1L58.49-2.1Q58.49-4.35 59.45-6.85L59.45-6.85Q59.24-6.75 57.59-4.85 55.95-2.95 53.77-1.2 51.59 0.55 49.84 0.55ZM84.09-14.2L84.09-14.2Q85.24-14.2 85.24-12.98 85.24-11.75 84.09-9.6 82.94-7.45 82.39-6.1L82.39-6.1Q81.44-3.8 81.44-2.43 81.44-1.05 81.84-0.6L81.84-0.6Q82.59 0.2 83.89-0.53 85.19-1.25 87.52-3.33 89.84-5.4 91.24-7.4L91.24-7.4Q91.44-7.65 91.72-7.53 91.99-7.4 91.99-7.28 91.99-7.15 91.89-7L91.89-7Q91.14-5.65 89.19-3.55 87.24-1.45 85.44-0.18 83.64 1.1 81.89 1.1L81.89 1.1Q80.19 1.05 79.49 0.33 78.79-0.4 78.79-1.5 78.79-2.6 78.99-3.63 79.19-4.65 79.74-6L79.74-6Q80.64-8.15 81.32-9.35 81.99-10.55 81.99-10.93 81.99-11.3 81.59-11.3L81.59-11.3Q80.79-11.3 78.54-9.35L78.54-9.35Q76.99-7.9 73.97-3.88 70.94 0.15 70.54 0.4L70.54 0.4Q68.74 1.3 68.29 1.3 67.84 1.3 67.84 1.15 67.84 1 67.94 0.73 68.04 0.45 68.92-2 69.79-4.45 70.82-7.38 71.84-10.3 72.07-10.9 72.29-11.5 72.37-11.93 72.44-12.35 72.54-12.65 72.64-12.95 72.92-13.33 73.19-13.7 73.64-13.73 74.09-13.75 74.79-13.63 75.49-13.5 75.49-13L75.49-13Q75.49-12.65 74.94-11.48 74.39-10.3 71.79-3.4L71.79-3.4Q73.59-5.6 76.34-8.47 79.09-11.35 80.99-12.85L80.99-12.85Q82.89-14.2 84.09-14.2ZM97.99-13.95L98.64-14Q102.49-14.35 103.31-14.35 104.14-14.35 104.14-14.1L104.14-14.1Q104.14-13.8 102.97-13.48 101.79-13.15 97.24-12.65L97.24-12.65Q96.99-12.2 96.64-11.6L96.64-11.6Q95.89-10.4 95.84-10.15L95.84-10.15Q92.99-4.45 92.84-2.9L92.84-2.9Q92.79-2.45 92.79-1.75 92.79-1.05 93.19-0.6L93.19-0.6Q93.89 0.2 95.19-0.5 96.49-1.2 98.81-3.3 101.14-5.4 102.59-7.4L102.59-7.4Q102.79-7.65 103.09-7.5L103.09-7.5Q103.84-7.15 100.49-3.55L100.49-3.55Q97.29-0.1 95.14 0.7L95.14 0.7Q93.89 1.15 93.04 1.15L93.04 1.15Q91.04 1.15 90.39-0.75L90.39-0.75Q90.29-1.1 90.29-1.6L90.29-1.6Q90.29-3.35 91.89-6.9L91.89-6.9Q91.64-6.35 89.94-4.4L89.94-4.4Q89.49-3.9 89.24-4.4L89.24-4.4Q89.19-4.5 89.19-4.67 89.19-4.85 89.39-5.1L89.39-5.1Q91.84-8.15 93.24-10.25L93.24-10.25Q93.24-10.3 94.34-12.35L94.34-12.35Q93.84-12.25 93.31-12.25 92.79-12.25 92.54-12.58 92.29-12.9 92.49-13.35L92.49-13.35Q92.84-14.15 95.14-14.25L95.14-14.25Q95.19-14.35 95.34-14.35L95.34-14.35 97.84-19Q98.04-19.4 98.29-19.83 98.54-20.25 98.67-20.48 98.79-20.7 98.94-20.95 99.09-21.2 99.19-21.3 99.29-21.4 99.39-21.5L99.39-21.5Q99.59-21.8 100.56-21.8 101.54-21.8 101.89-21.25L101.89-21.25Q102.04-21.05 102.04-20.58 102.04-20.1 101.69-19.53 101.34-18.95 100.94-18.7 100.54-18.45 100.39-18.15L100.39-18.15 97.99-13.95ZM125.44-7Q124.69-5.65 122.74-3.55 120.79-1.45 119.24-0.3L119.24-0.3Q117.24 1.15 114.89 1.15L114.89 1.15Q114.44 1.15 113.71 0.73 112.99 0.3 112.74-0.5 112.49-1.3 112.49-2.05L112.49-2.05Q112.49-4.65 113.49-7.2L113.49-7.2Q113.34-7.1 112.11-5.08 110.89-3.05 109.11-1.25 107.34 0.55 105.54 0.55L105.54 0.55Q104.69 0.55 103.59 0.1L103.59 0.1Q101.59-0.8 101.59-3.2L101.59-3.2Q101.59-6.15 103.61-9.28 105.64-12.4 106.19-12.6L106.19-12.6Q106.94-12.8 107.61-12.8 108.29-12.8 108.99-12.53 109.69-12.25 108.79-11.6L108.79-11.6Q105.34-8.45 103.89-4.6L103.89-4.6Q103.34-3.1 103.34-2.08 103.34-1.05 103.86-0.75 104.39-0.45 104.89-0.45L104.89-0.45Q106.09-0.45 108.16-2.13 110.24-3.8 113.89-9.1L113.89-9.1Q114.39-9.85 115.64-12.03 116.89-14.2 117.14-14.6L117.14-14.6Q117.94-14.6 119.01-14.23 120.09-13.85 119.74-13.25L119.74-13.25Q117.34-9.25 116.36-7.35 115.39-5.45 115.04-2.9L115.04-2.9Q114.99-2.45 114.99-1.75 114.99-1.05 115.39-0.6L115.39-0.6Q116.14 0.2 117.46-0.53 118.79-1.25 121.09-3.33 123.39-5.4 124.79-7.4L124.79-7.4Q124.99-7.65 125.26-7.53 125.54-7.4 125.54-7.28 125.54-7.15 125.44-7L125.44-7ZM130.78 1.25L130.78 1.25Q128.24 1.25 128.24-1.83 128.24-4.9 132.63-9.4L132.63-9.4Q132.99-9.75 133.13-9.95L133.13-9.95 133.49-10.45Q134.19-11.4 134.13-11.65L134.13-11.65 133.99-12.1Q133.78-12.7 132.34-12.98 130.88-13.25 129.99-13.25L129.99-13.25Q125.48-6.9 124.78-6 124.09-5.1 123.84-5.25 123.59-5.4 123.59-5.6 123.59-5.8 123.89-6.2L123.89-6.2Q126.59-9.5 128.53-13.25L128.53-13.25Q127.94-13.35 127.64-13.68 127.34-14 127.59-14.78 127.84-15.55 129.11-16.85 130.38-18.15 131.34-18.6 132.28-19.05 132.53-19.15 132.78-19.25 133.09-19.25L133.09-19.25Q133.69-19.25 132.69-17.45L132.69-17.45 130.74-14.35Q132.99-14.2 134.59-14.2L134.59-14.2 136.34-14.25Q137.19-14.25 137.59-14.03 137.99-13.8 137.78-13.25L137.78-13.25Q137.44-12.3 136.03-10.7L136.03-10.7Q133.03-7.2 131.53-3.25L131.53-3.25Q131.19-2.3 131.19-1.6L131.19-1.6Q131.19-0.15 132.24-0.15L132.24-0.15Q132.59-0.15 133.56-0.7 134.53-1.25 136.84-3.33 139.13-5.4 140.53-7.4L140.53-7.4Q140.74-7.65 141.01-7.53 141.28-7.4 141.28-7.28 141.28-7.15 141.19-7L141.19-7Q140.44-5.65 138.49-3.55 136.53-1.45 134.69-0.15L134.69-0.15Q132.88 1.25 130.78 1.25ZM142.43 0.55L142.43 0.55Q141.63 0.55 140.71 0.08 139.78-0.4 139.13-1.28 138.48-2.15 138.48-3.15 138.48-4.15 138.93-5.05L138.93-5.05Q139.93-7.15 142.16-9.13 144.38-11.1 146.78-12.5 149.18-13.9 150.58-14.25 151.98-14.6 153.31-14.6 154.63-14.6 155.58-13.93 156.53-13.25 156.53-12.5L156.53-12.5Q156.53-12.25 156.48-12.2 156.43-12.15 156.23-12.25L156.23-12.25Q155.63-13.2 153.76-13.2 151.88-13.2 149.51-11.98 147.13-10.75 145.03-8.9L145.03-8.9Q143.28-7.25 141.96-5.18 140.63-3.1 140.63-2.15L140.63-2.15Q140.63-0.3 141.68-0.3 142.73-0.3 144.88-2L144.88-2Q148.43-5 149.73-6.4L149.73-6.4Q154.33-11.35 154.68-11.35L154.68-11.35Q155.28-11.35 156.13-11 156.98-10.65 156.68-10.15L156.68-10.15Q154.13-6.55 153.68-2.9L153.68-2.9Q153.63-2.45 153.63-1.75 153.63-1.05 154.03-0.6L154.03-0.6Q154.78 0.2 156.08-0.5 157.38-1.2 159.71-3.3 162.03-5.4 163.43-7.4L163.43-7.4Q163.63-7.65 163.88-7.53 164.13-7.4 164.13-7.3L164.13-7.3Q164.13-6.55 161.76-4.03 159.38-1.5 158.13-0.6L158.13-0.6Q155.78 1.15 153.78 1.15L153.78 1.15Q151.88 1.15 151.23-0.75L151.23-0.75Q151.08-1.35 151.08-2.1L151.08-2.1Q151.08-4.35 152.03-6.85L152.03-6.85Q151.83-6.75 150.18-4.85 148.53-2.95 146.36-1.2 144.18 0.55 142.43 0.55ZM176.78-13.5L176.78-13.5Q177.68-13.5 178.93-12.58 180.18-11.65 180.33-10.75L180.33-10.75Q180.38-10.4 180.38-10.1L180.38-10.1Q180.38-7.85 178.18-5.28 175.98-2.7 173.23-0.9L173.23-0.9Q168.98 2 164.78 2L164.78 2Q163.08 2 162.08 1.55L162.08 1.55Q161.28 1.15 164.08 1.15L164.08 1.15Q167.13 1.15 171.98-2.45L171.98-2.45Q176.68-5.75 177.68-10.35L177.68-10.35Q177.83-11.05 177.66-11.78 177.48-12.5 176.78-12.5L176.78-12.5Q174.53-12.5 170.88-9.35L170.88-9.35Q169.33-8.05 167.71-5.85 166.08-3.65 166.08-2.25L166.08-2.25Q166.08-2.05 166.16-1.83 166.23-1.6 165.98-1.1L165.98-1.1Q165.33 0.2 164.13-1.25L164.13-1.25Q163.83-2 163.83-2.8L163.83-2.8Q163.83-5.1 164.53-7.65L164.53-7.65Q164.33-7.45 163.66-6.43 162.98-5.4 162.08-4.4L162.08-4.4Q161.63-3.9 161.38-4.4L161.38-4.4Q161.33-4.5 161.33-4.67 161.33-4.85 161.53-5.1L161.53-5.1Q165.43-9.95 166.08-11.4L166.08-11.4Q166.98-13.9 168.83-17.93 170.68-21.95 172.23-24.35L172.23-24.35Q175.43-29.4 178.83-29.4L178.83-29.4Q179.43-29.4 180.08-29.25L180.08-29.25 181.08-28.9Q182.53-28.05 182.53-26.73 182.53-25.4 181.73-23.85L181.73-23.85Q180.43-21.2 176.13-17.18 171.83-13.15 167.78-10.35L167.78-10.35Q166.78-8.55 166.23-5.65L166.23-5.65Q168.08-8.4 171.06-10.95 174.03-13.5 176.78-13.5ZM175.18-18L175.18-18Q181.13-24 181.13-26.9L181.13-26.9Q181.13-28.1 180.23-28.1L180.23-28.1Q179.53-28.1 178.33-27.2L178.33-27.2Q173.18-23.25 168.33-12.35L168.33-12.35Q171.73-14.6 175.18-18Z" opacity="1" transform="matrix(1,0,0,1,0,0)" fill="#111111" class="undefined-text-0" data-fill-palette-color="primary" id="text-0"></path></svg></g></svg></g><g transform="matrix(1,0,0,1,0,89.81357017335763)"><svg viewBox="0 0 395.52 56.061600937133925" height="56.061600937133925" width="395.52"><g transform="matrix(1,0,0,1,0,0)"><svg width="395.52" viewBox="2.299999952316284 -40.95000076293945 384.1200256347656 54.45000076293945" height="56.061600937133925" data-palette-color="#aaaaaa"><path d="M2.3 0L2.3-2.45 6.45-2.95 6.45-34.05 2.55-34.7 2.55-37.15 9.1-37.15Q10.5-37.15 12.9-37.35L12.9-37.35Q15.4-37.55 16.8-37.55L16.8-37.55Q24.15-37.55 27.28-35.18 30.4-32.8 30.4-27.7L30.4-27.7Q30.4-24.15 28.43-21.2 26.45-18.25 23-17.2L23-17.2Q24.6-16.35 25.98-14.28 27.35-12.2 29.35-8.5L29.35-8.5Q30.9-5.7 31.73-4.4 32.55-3.1 33.3-2.95L33.3-2.95 35.25-2.45 35.25 0 28.35 0Q27.55 0 26.55-1.73 25.55-3.45 23.9-7.05L23.9-7.05Q22.1-11 20.78-13.33 19.45-15.65 18.15-16.3L18.15-16.3Q12.8-16.3 11.8-16.35L11.8-16.35 11.8-2.95 16.75-2.45 16.75 0 2.3 0ZM17.75-19Q20.95-19 22.8-21.1 24.65-23.2 24.65-27.35L24.65-27.35Q24.65-31 22.78-32.93 20.9-34.85 16.3-34.85L16.3-34.85Q14.7-34.85 13.1-34.65L13.1-34.65Q12.1-34.55 11.8-34.55L11.8-34.55 11.8-19.05Q12.55-19 14.9-19L14.9-19 17.75-19ZM49.75 0.55Q43.7 0.55 40.52-3.4 37.35-7.35 37.35-13.95L37.35-13.95Q37.35-18.3 39-21.6 40.65-24.9 43.62-26.7 46.6-28.5 50.4-28.5L50.4-28.5Q55.05-28.5 57.62-25.93 60.2-23.35 60.35-18.55L60.35-18.55Q60.35-15.5 60-13.9L60-13.9 42.8-13.9Q42.9-8.95 45.1-5.93 47.3-2.9 51.35-2.9L51.35-2.9Q53.35-2.9 55.52-3.63 57.7-4.35 58.9-5.35L58.9-5.35 59.85-3.15Q58.4-1.65 55.55-0.55 52.7 0.55 49.75 0.55L49.75 0.55ZM42.85-16.55L54.85-16.55Q55-17.6 55-18.7L55-18.7Q54.95-21.95 53.62-23.83 52.3-25.7 49.45-25.7L49.45-25.7Q46.55-25.7 44.82-23.6 43.1-21.5 42.85-16.55L42.85-16.55ZM75.45 0.55Q72.45 0.55 69.95-0.95 67.45-2.45 65.97-5.55 64.5-8.65 64.5-13.2L64.5-13.2Q64.5-17.45 66.25-20.95 68-24.45 71.27-26.48 74.55-28.5 79-28.5L79-28.5Q81.55-28.5 83.65-27.95L83.65-27.95 83.65-37.3 78.55-37.9 78.55-40.05 87.55-40.95 87.7-40.95 88.8-40.15 88.8-2.55 91.7-2.55 91.7-0.25Q90.1 0.1 88.92 0.3 87.75 0.5 86.45 0.5L86.45 0.5Q85.15 0.5 84.6 0.05 84.05-0.4 84.05-1.85L84.05-1.85 84.05-3.45Q82.65-1.75 80.37-0.6 78.1 0.55 75.45 0.55L75.45 0.55ZM77.45-3Q79.4-3 81.1-3.88 82.8-4.75 83.65-5.9L83.65-5.9 83.65-24.2Q83.25-24.8 81.77-25.28 80.3-25.75 78.65-25.75L78.65-25.75Q74.75-25.75 72.42-22.78 70.1-19.8 70.1-13.6L70.1-13.6Q70.1-8.2 72.15-5.6 74.2-3 77.45-3L77.45-3ZM95.69-13.95Q95.69-18.45 97.54-21.75 99.39-25.05 102.42-26.78 105.44-28.5 108.89-28.5L108.89-28.5Q115.19-28.5 118.37-24.5 121.54-20.5 121.54-14L121.54-14Q121.54-9.45 119.69-6.15 117.84-2.85 114.82-1.15 111.79 0.55 108.34 0.55L108.34 0.55Q102.04 0.55 98.87-3.45 95.69-7.45 95.69-13.95L95.69-13.95ZM108.64-2.3Q112.09-2.3 113.94-5.15 115.79-8 115.79-13.6L115.79-13.6Q115.79-19.15 114.09-22.4 112.39-25.65 108.64-25.65L108.64-25.65Q105.19-25.65 103.32-22.8 101.44-19.95 101.44-14.35L101.44-14.35Q101.44-8.8 103.19-5.55 104.94-2.3 108.64-2.3L108.64-2.3ZM123.79-25.4L123.79-27.75 135.39-27.75 135.39-25.4 131.84-24.75 136.89-10.35 138.99-4 140.79-10.15 145.84-24.75 142.44-25.4 142.44-27.75 152.59-27.75 152.59-25.4 149.99-24.75 140.34 0.4 136.09 0.4 126.04-24.75 123.79-25.4ZM160.39-32.75Q158.79-32.75 157.99-33.65 157.19-34.55 157.19-35.95L157.19-35.95Q157.19-37.55 158.16-38.6 159.14-39.65 160.84-39.65L160.84-39.65Q162.54-39.65 163.34-38.75 164.14-37.85 164.14-36.45L164.14-36.45Q164.14-34.75 163.16-33.75 162.19-32.75 160.44-32.75L160.44-32.75 160.39-32.75ZM158.39-2.9L158.39-23.9 154.59-24.8 154.59-27.45 162.34-28.4 162.44-28.4 163.59-27.5 163.59-2.85 167.59-2.45 167.59 0 154.34 0 154.34-2.45 158.39-2.9ZM174.89-7.9L175.79-4Q176.29-3.25 177.91-2.65 179.54-2.05 181.34-2.05L181.34-2.05Q184.19-2.05 185.54-3.15 186.89-4.25 186.89-6.2L186.89-6.2Q186.89-7.55 186.04-8.55 185.19-9.55 183.66-10.33 182.14-11.1 179.29-12.2L179.29-12.2Q175.44-13.65 173.66-15.68 171.89-17.7 171.89-21L171.89-21Q171.89-23.2 173.21-24.85 174.54-26.5 176.86-27.43 179.19-28.35 182.04-28.35L182.04-28.35Q184.34-28.35 186.06-28 187.79-27.65 188.84-27.3 189.89-26.95 190.24-26.85L190.24-26.85 190.24-20.65 187.19-20.65 186.19-24.35Q185.89-24.95 184.59-25.38 183.29-25.8 181.69-25.8L181.69-25.8Q179.44-25.8 178.06-24.8 176.69-23.8 176.69-22.1L176.69-22.1Q176.69-20.6 177.41-19.63 178.14-18.65 179.24-18.05 180.34-17.45 182.24-16.65L182.24-16.65 183.24-16.25Q186.04-15.15 187.79-14.15 189.54-13.15 190.71-11.53 191.89-9.9 191.89-7.55L191.89-7.55Q191.89-3.85 189.01-1.65 186.14 0.55 181.14 0.55L181.14 0.55Q178.69 0.55 176.01-0.13 173.34-0.8 171.64-1.5L171.64-1.5 171.64-7.9 174.89-7.9ZM199.38-2.9L199.38-23.9 195.78-24.8 195.78-27.5 202.93-28.4 203.08-28.4 204.13-27.5 204.13-25.4 204.08-24.2Q205.88-25.8 208.83-27.1 211.78-28.4 214.48-28.4L214.48-28.4Q217.63-28.4 219.36-27.2 221.08-26 221.78-23.53 222.48-21.05 222.48-16.85L222.48-16.85 222.48-2.85 225.98-2.5 225.98 0 214.13 0 214.13-2.45 217.23-2.85 217.23-16.9Q217.23-19.85 216.83-21.53 216.43-23.2 215.33-24.03 214.23-24.85 212.13-24.85L212.13-24.85Q210.33-24.85 208.28-23.95 206.23-23.05 204.63-21.85L204.63-21.85 204.63-2.9 208.03-2.45 208.03 0 196.23 0 196.23-2.45 199.38-2.9ZM235.48-32.75Q233.88-32.75 233.08-33.65 232.28-34.55 232.28-35.95L232.28-35.95Q232.28-37.55 233.26-38.6 234.23-39.65 235.93-39.65L235.93-39.65Q237.63-39.65 238.43-38.75 239.23-37.85 239.23-36.45L239.23-36.45Q239.23-34.75 238.26-33.75 237.28-32.75 235.53-32.75L235.53-32.75 235.48-32.75ZM233.48-2.9L233.48-23.9 229.68-24.8 229.68-27.45 237.43-28.4 237.53-28.4 238.68-27.5 238.68-2.85 242.68-2.45 242.68 0 229.43 0 229.43-2.45 233.48-2.9ZM249.23-2.9L249.23-23.9 245.63-24.8 245.63-27.5 252.78-28.4 252.93-28.4 253.98-27.5 253.98-25.4 253.93-24.2Q255.73-25.8 258.68-27.1 261.63-28.4 264.33-28.4L264.33-28.4Q267.48-28.4 269.2-27.2 270.93-26 271.63-23.53 272.33-21.05 272.33-16.85L272.33-16.85 272.33-2.85 275.83-2.5 275.83 0 263.98 0 263.98-2.45 267.08-2.85 267.08-16.9Q267.08-19.85 266.68-21.53 266.28-23.2 265.18-24.03 264.08-24.85 261.98-24.85L261.98-24.85Q260.18-24.85 258.13-23.95 256.08-23.05 254.48-21.85L254.48-21.85 254.48-2.9 257.88-2.45 257.88 0 246.08 0 246.08-2.45 249.23-2.9ZM291.38 13.5Q284.98 13.5 282.1 11.48 279.23 9.45 279.23 5.9L279.23 5.9Q279.23 3.7 280.6 1.85 281.98 0 283.88-0.95L283.88-0.95Q281.58-2.25 281.58-5.15L281.58-5.15Q281.58-6.95 282.63-8.55 283.68-10.15 285.38-11L285.38-11Q282.88-12.1 281.55-14.15 280.23-16.2 280.23-19L280.23-19Q280.23-21.9 281.85-24.05 283.48-26.2 286.15-27.35 288.83-28.5 291.83-28.5L291.83-28.5Q296.88-28.5 299.73-26.4L299.73-26.4Q300.48-27.15 302.03-27.85 303.58-28.55 305.33-28.55L305.33-28.55 307.03-28.55 307.03-24.15 301.53-24.15Q302.73-22.3 302.73-19.85L302.73-19.85Q302.73-16.9 301.25-14.63 299.78-12.35 297.15-11.1 294.53-9.85 291.23-9.85L291.23-9.85Q289.08-9.85 287.38-10.3L287.38-10.3Q286.68-9.6 286.23-8.75 285.78-7.9 285.78-7.1L285.78-7.1Q285.78-5.3 286.98-4.63 288.18-3.95 291.28-3.95L291.28-3.95 296.93-3.95Q301.78-3.95 304.13-2.1 306.48-0.25 306.48 3.15L306.48 3.15Q306.48 6 304.43 8.38 302.38 10.75 298.9 12.13 295.43 13.5 291.38 13.5L291.38 13.5ZM291.73-12.6Q297.43-12.6 297.43-19.35L297.43-19.35Q297.43-22.7 295.95-24.28 294.48-25.85 291.53-25.85L291.53-25.85Q288.78-25.85 287.18-24.33 285.58-22.8 285.58-19.45L285.58-19.45Q285.58-16.3 287.1-14.45 288.63-12.6 291.73-12.6L291.73-12.6ZM291.83 10.6Q294.28 10.6 296.45 9.88 298.63 9.15 299.98 7.73 301.33 6.3 301.33 4.4L301.33 4.4Q301.33 2.15 300.13 1.13 298.93 0.1 295.48 0.1L295.48 0.1 289.58 0.1Q287.58 0.1 286.43-0.15L286.43-0.15Q284.38 2.1 284.38 4.9L284.38 4.9Q284.38 7.7 286.08 9.15 287.78 10.6 291.83 10.6L291.83 10.6ZM321.82-2.95L333.87-37.45 339.37-37.45 351.52-2.95 354.62-2.45 354.62 0 341.42 0 341.42-2.45 345.57-2.95 343.22-10.35 328.62-10.35 326.27-2.95 330.57-2.45 330.57 0 318.72 0 318.72-2.45 321.82-2.95ZM342.27-13.3L337.02-29.45 335.77-33.85 334.57-29.35 329.52-13.3 342.27-13.3ZM360.42-2.95L360.42-34.05 356.32-34.65 356.32-37.15 363.07-37.15Q364.77-37.15 367.37-37.35L367.37-37.35Q369.77-37.55 370.92-37.55L370.92-37.55Q377.82-37.55 380.79-35.4 383.77-33.25 383.77-29.1L383.77-29.1Q383.77-25.55 381.72-23 379.67-20.45 376.12-19.8L376.12-19.8Q380.92-19.9 383.67-17.55 386.42-15.2 386.42-11.15L386.42-11.15Q386.42-6.1 382.84-2.9 379.27 0.3 371.02 0.3L371.02 0.3Q369.22 0.3 367.57 0.15L367.57 0.15Q363.67 0 362.92 0L362.92 0 356.27 0 356.27-2.45 360.42-2.95ZM365.72-20.75Q366.42-20.7 368.57-20.7L368.57-20.7 371.32-20.7Q374.82-20.7 376.62-22.65 378.42-24.6 378.42-28.2L378.42-28.2Q378.42-31.7 376.62-33.33 374.82-34.95 370.47-34.95L370.47-34.95Q368.67-34.95 366.77-34.75L366.77-34.75 365.72-34.65 365.72-20.75ZM365.72-2.8Q366.87-2.4 370.92-2.4L370.92-2.4Q375.97-2.4 378.24-4.48 380.52-6.55 380.52-10.45L380.52-10.45Q380.52-14.3 378.54-16.05 376.57-17.8 372.17-17.8L372.17-17.8Q367.07-17.8 365.72-17.7L365.72-17.7 365.72-2.8Z" opacity="1" transform="matrix(1,0,0,1,0,0)" fill="#aaaaaa" class="undefined-text-1" data-fill-palette-color="secondary" id="text-1"></path></svg></g></svg></g></svg></g></svg></g><g></g></svg></g></svg><rect width="395.52" height="145.14942399053888" fill="none" stroke="none" visibility="hidden"></rect></g></svg></g></svg>